<?xml version="1.0" standalone="no"?>
<!DOCTYPE svg PUBLIC "-//W3C//DTD SVG 20010904//EN"
 "http://www.w3.org/TR/2001/REC-SVG-20010904/DTD/svg10.dtd">
<svg version="1.0" xmlns="http://www.w3.org/2000/svg"
 width="1000.000000pt" height="1000.000000pt" viewBox="0 0 1000.000000 1000.000000"
 preserveAspectRatio="xMidYMid meet">
<metadata>
Created by potrace 1.14, written by Peter Selinger 2001-2017
</metadata>
<g transform="translate(0.000000,1000.000000) scale(0.100000,-0.100000)"
fill="#000000" stroke="none">
<path d="M4765 9094 c-12 -27 -12 -37 -2 -51 15 -21 4 -97 -17 -114 -15 -13
-19 -28 -18 -75 l1 -60 -82 0 c-82 -1 -118 -6 -192 -25 -51 -14 -71 -18 -118
-25 -21 -3 -44 -7 -50 -8 -7 -1 -16 -4 -22 -7 -5 -4 -18 -5 -27 -4 -10 2 -18
0 -18 -3 0 -8 -4 -8 -142 -14 -75 -4 -105 -1 -130 11 -18 8 -35 19 -36 23 -2
5 -8 6 -13 2 -5 -3 -9 -1 -9 4 0 14 -86 35 -114 28 -30 -7 -41 -37 -26 -67 11
-19 10 -20 -9 -14 -24 7 -23 13 -26 -91 -3 -79 -3 -81 31 -124 19 -24 51 -55
70 -69 41 -29 44 -42 7 -32 -92 25 -323 -20 -385 -76 -10 -9 -18 -12 -18 -8 0
4 -24 -16 -54 -46 -48 -48 -118 -169 -98 -169 4 0 2 -4 -5 -8 -6 -4 -13 -20
-16 -37 -3 -16 -8 -39 -10 -50 -3 -11 -8 -39 -12 -62 -6 -41 -39 -90 -56 -85
-5 1 -9 -2 -9 -7 0 -5 -20 -20 -45 -32 -91 -46 -121 -95 -100 -167 13 -41 11
-112 -4 -234 -1 -3 -8 -8 -16 -10 -13 -3 -13 -7 -1 -30 13 -24 12 -28 -8 -46
-87 -81 -196 -303 -196 -402 0 -41 23 -121 42 -145 5 -5 20 -28 35 -50 32 -48
35 -108 7 -170 -10 -22 -19 -47 -20 -55 -2 -8 -8 -16 -13 -18 -6 -2 -11 -8
-11 -12 0 -5 -13 -28 -28 -52 -39 -59 -53 -96 -41 -103 5 -4 7 -10 4 -15 -16
-25 58 -53 81 -30 6 6 8 -27 6 -94 -3 -81 0 -110 12 -135 9 -17 15 -31 12 -31
-2 0 10 -30 28 -67 83 -170 79 -156 82 -313 5 -240 17 -332 60 -453 13 -40 26
-79 28 -88 21 -85 126 -317 148 -327 5 -2 8 -8 8 -13 0 -6 9 -19 20 -31 11
-12 20 -28 20 -35 0 -7 4 -13 8 -13 5 0 14 -16 22 -35 8 -19 17 -35 20 -35 4
0 11 -8 16 -19 9 -18 50 -73 89 -117 11 -12 40 -46 65 -74 25 -28 87 -93 139
-143 51 -51 125 -122 163 -159 37 -38 71 -68 75 -68 3 0 19 -13 35 -30 15 -16
33 -30 38 -30 6 0 10 -4 10 -9 0 -4 25 -32 55 -62 30 -30 55 -59 55 -66 0 -7
6 -16 13 -20 6 -4 30 -35 52 -68 57 -85 81 -158 43 -128 -7 6 -49 10 -93 9
-48 -1 -94 4 -115 13 -19 7 -53 15 -75 18 -45 4 -135 -14 -135 -28 0 -5 -5 -9
-11 -9 -7 0 -33 -22 -59 -50 -26 -28 -54 -50 -63 -50 -9 0 -22 -6 -29 -12 -7
-7 -20 -15 -28 -17 -36 -9 -405 -15 -440 -6 -45 10 -234 8 -299 -4 -36 -7 -82
-21 -103 -32 -21 -11 -38 -16 -38 -12 0 5 -4 3 -8 -2 -4 -6 -31 -21 -61 -35
-30 -14 -67 -37 -84 -52 -16 -16 -33 -28 -39 -28 -5 0 -7 -4 -4 -8 2 -4 -9
-17 -25 -27 -16 -11 -29 -23 -29 -27 0 -7 -105 -114 -151 -154 -13 -11 -68
-67 -121 -123 -82 -86 -100 -111 -113 -156 -23 -78 -12 -215 17 -215 4 0 8 -7
8 -15 0 -9 7 -18 16 -22 13 -5 11 -10 -12 -29 -15 -13 -30 -24 -33 -24 -5 0
-22 -14 -91 -72 -8 -7 -17 -12 -20 -11 -3 1 -26 -9 -52 -22 -27 -13 -48 -21
-48 -17 0 4 -4 2 -8 -3 -4 -6 -25 -22 -47 -36 -22 -15 -79 -64 -126 -110 -47
-46 -138 -133 -201 -194 -64 -60 -144 -137 -179 -171 -35 -33 -65 -67 -67 -75
-2 -7 -7 -16 -11 -19 -4 -3 -18 -21 -31 -40 -13 -19 -27 -37 -31 -40 -3 -3
-12 -16 -19 -30 -7 -14 -28 -43 -46 -65 -35 -43 -114 -199 -114 -225 0 -9 -5
-21 -12 -28 -7 -7 -9 -12 -5 -12 4 0 2 -10 -5 -23 -7 -12 -13 -24 -13 -27 0
-3 -9 -29 -19 -57 -9 -29 -15 -57 -11 -63 3 -5 2 -10 -2 -10 -5 0 -10 -10 -10
-22 -1 -13 -9 -41 -17 -63 -8 -22 -22 -71 -31 -110 -9 -38 -21 -78 -26 -87 -6
-12 -6 -18 1 -18 6 0 6 -9 0 -25 -10 -26 -49 -200 -54 -245 -2 -14 -9 -54 -16
-90 -7 -36 -13 -69 -14 -75 -1 -5 -4 -14 -8 -20 -11 -19 -23 -80 -33 -170 -3
-33 -8 -66 -11 -74 -2 -8 -7 -45 -10 -83 l-6 -68 4371 0 4371 0 1 33 c1 37 0
62 -7 97 -3 14 -7 70 -9 125 -3 55 -10 125 -16 155 -6 30 -13 62 -14 70 -2 8
-4 15 -5 15 -3 0 -11 63 -14 120 -2 33 -7 71 -10 85 -14 59 -19 86 -22 105 -1
11 -3 20 -4 20 -1 0 -3 9 -5 20 -1 11 -6 36 -9 55 -4 20 -8 54 -11 75 -2 22
-4 40 -5 40 -1 0 -3 16 -6 35 -2 19 -7 42 -11 50 -8 20 -10 27 -23 80 -6 25
-15 49 -21 54 -5 6 -9 19 -9 29 0 11 -11 41 -25 68 -13 27 -22 49 -19 49 3 0
-4 10 -16 22 -11 12 -20 28 -20 35 0 7 -4 13 -9 13 -5 0 -16 16 -26 36 -31 66
-169 256 -233 321 -7 7 -10 13 -5 13 4 0 3 4 -2 8 -16 11 -78 92 -71 92 4 0
-27 34 -68 75 -41 41 -79 75 -85 75 -11 0 -38 19 -73 53 -10 9 -18 14 -18 11
0 -3 -12 3 -27 13 -28 19 -82 46 -95 47 -4 1 -12 6 -19 13 -6 6 -18 9 -25 6
-8 -3 -14 -1 -14 4 0 5 -12 10 -26 11 -15 1 -33 7 -40 13 -8 6 -14 9 -14 5 0
-3 -24 6 -52 20 -72 37 -110 47 -119 32 -6 -9 -27 -2 -77 22 -66 32 -69 35
-59 57 5 13 13 23 16 23 4 0 8 14 9 32 2 18 6 35 10 38 4 3 14 19 22 35 8 17
21 36 28 43 6 7 12 24 12 37 0 24 14 43 52 69 17 12 22 27 23 68 1 29 -1 58
-4 63 -3 6 -7 19 -9 30 -9 60 -141 219 -204 248 -15 6 -28 15 -28 19 0 5 -5 8
-10 8 -6 0 -30 9 -54 21 -25 11 -53 22 -63 24 -10 2 -18 4 -18 5 0 5 -47 12
-100 15 -33 2 -60 5 -60 6 0 1 -58 2 -130 4 -71 1 -150 5 -175 9 -25 4 -54 9
-65 11 -11 1 -22 4 -25 5 -3 1 -9 3 -15 4 -29 4 -103 34 -115 46 -3 3 -21 13
-40 22 -19 10 -63 35 -97 57 -35 21 -84 45 -110 54 -44 14 -131 32 -143 30 -3
-1 -38 -4 -78 -7 -40 -3 -82 -11 -95 -17 -12 -7 -23 -12 -24 -11 -2 1 -4 2 -5
1 -18 -7 -69 -3 -93 6 -51 22 -185 40 -185 26 0 -4 -9 -12 -20 -19 -18 -11
-22 -9 -31 15 -6 16 -13 39 -15 53 -3 14 -7 32 -11 40 -6 15 -7 18 -19 85 -8
45 -9 349 0 410 4 34 17 109 21 125 1 3 5 25 10 50 5 25 10 47 11 50 0 3 5 20
9 38 4 17 11 32 16 32 5 0 8 3 6 8 -3 10 84 185 97 194 6 4 8 8 4 8 -4 0 -1
15 7 34 8 18 12 36 9 38 -2 3 1 18 7 34 7 16 13 32 14 37 2 4 3 8 4 10 2 1 4
13 7 26 2 14 8 29 13 35 5 6 19 37 31 69 12 31 25 57 29 57 4 0 13 10 20 23 9
17 21 23 44 22 18 0 39 2 47 6 8 4 36 14 61 23 25 9 60 29 77 44 51 44 76 62
86 62 5 0 6 3 3 6 -4 4 8 21 26 38 47 46 75 95 108 191 8 22 16 42 19 45 6 6
13 31 13 50 0 8 4 21 10 28 5 6 6 12 3 12 -4 0 -1 10 5 22 7 13 13 71 14 137
1 75 5 116 12 118 37 13 77 64 137 178 6 11 23 36 37 55 71 94 85 187 41 280
-25 54 -35 110 -19 110 5 0 5 5 2 10 -3 6 -1 10 5 10 6 0 8 5 5 10 -3 6 -2 10
3 10 8 0 34 54 65 135 17 47 16 204 -1 248 -9 21 -9 26 0 21 6 -4 8 -3 4 4 -6
9 -9 46 -20 237 -2 33 -7 72 -11 87 -5 19 -2 32 9 43 9 9 16 13 16 8 0 -4 6 1
13 12 18 26 20 94 4 113 -6 8 -11 18 -11 21 4 14 -49 91 -87 125 -33 31 -57
68 -63 96 -9 41 -33 112 -47 136 -35 63 -44 79 -56 92 -7 7 -13 17 -13 22 0 5
-23 39 -51 76 -52 67 -89 108 -89 99 0 -3 -10 3 -22 15 -22 20 -21 30 4 34 47
6 158 95 158 126 0 9 9 25 20 35 27 24 26 61 -2 77 -13 7 -26 11 -30 10 -5 -1
-8 2 -8 6 0 4 -17 8 -37 7 -21 0 -42 1 -47 3 -4 3 -28 6 -52 8 -62 5 -207 74
-249 118 -14 15 -40 30 -115 66 -94 46 -103 50 -127 55 -13 3 -33 7 -45 10
-57 14 -119 19 -193 17 -44 -1 -87 -2 -95 -2 -21 0 -42 4 -65 16 -22 10 -55
11 -70 2 -6 -3 -25 0 -43 7 -27 12 -32 19 -32 48 0 18 4 37 9 43 13 13 -20 77
-61 117 -38 38 -132 97 -153 97 -8 0 -15 5 -15 10 0 6 -8 10 -18 10 -10 0 -22
4 -28 9 -14 14 -117 49 -160 55 -42 7 -69 12 -106 22 -13 3 -29 6 -35 6 -7 1
-13 5 -13 10 0 5 -4 7 -9 3 -10 -6 -104 35 -109 48 -2 4 -8 7 -14 7 -5 0 -48
25 -93 56 -95 64 -165 82 -180 48z"/>
<path d="M2246 5074 c-27 -7 -52 -17 -55 -21 -3 -4 -15 -10 -26 -11 -11 -2
-21 -8 -23 -13 -2 -5 -9 -9 -15 -9 -7 0 -18 -9 -24 -19 -9 -15 -9 -23 2 -37 7
-11 18 -20 24 -20 6 -1 16 -2 22 -3 5 0 7 -5 4 -11 -3 -5 -1 -10 4 -10 6 0 11
-11 11 -25 0 -22 -4 -24 -32 -22 -27 2 -32 7 -35 32 -3 28 -20 78 -45 131 -14
30 -46 43 -75 30 -31 -15 -32 -30 -11 -108 10 -37 18 -77 18 -88 0 -24 -22
-22 -32 3 -12 27 -50 20 -115 -22 -81 -52 -125 -100 -161 -176 -40 -84 -53
-134 -57 -221 -2 -66 1 -93 19 -174 24 -105 188 -265 281 -272 14 -1 25 -6 25
-10 0 -8 11 -9 105 -11 42 -1 78 6 117 22 32 13 69 24 83 25 14 0 25 5 25 9 0
4 8 3 19 -2 10 -6 21 -8 25 -4 3 3 36 7 73 9 83 4 103 8 173 42 59 27 139 97
170 147 18 29 37 93 47 160 2 17 -1 51 -7 75 -6 25 -13 56 -16 69 -7 34 -49
112 -76 141 -30 32 -66 52 -73 41 -3 -5 -19 -3 -35 5 -32 16 -55 42 -28 31 9
-3 20 -1 25 4 13 13 67 25 125 28 31 2 41 37 22 76 -19 40 -95 125 -112 125
-7 0 -12 4 -12 9 0 7 -101 63 -122 67 -5 1 -9 2 -10 4 -23 17 -161 20 -222 4z
m354 -189 c14 -19 14 -19 -2 -6 -10 7 -18 18 -18 24 0 6 1 8 3 6 1 -2 9 -13
17 -24z m-819 -652 c13 -16 12 -17 -3 -4 -10 7 -18 15 -18 17 0 8 8 3 21 -13z"/>
</g>
</svg>
